<mxfile host="app.diagrams.net" agent="Mozilla/5.0 (Macintosh; Intel Mac OS X 10_15_7) AppleWebKit/537.36 (KHTML, like Gecko) Chrome/133.0.0.0 Safari/537.36" version="26.0.14">
  <diagram name="第 1 页" id="itWa2HLxFMrQTIuCtR0Q">
    <mxGraphModel dx="1242" dy="785" grid="1" gridSize="10" guides="1" tooltips="1" connect="1" arrows="1" fold="1" page="1" pageScale="1" pageWidth="827" pageHeight="1169" math="0" shadow="0">
      <root>
        <mxCell id="0" />
        <mxCell id="1" parent="0" />
        <mxCell id="f6TxtcuEmIEezps3rI4S-1" value="" style="rounded=0;whiteSpace=wrap;html=1;dashed=1;" vertex="1" parent="1">
          <mxGeometry x="414" y="120" width="690" height="380" as="geometry" />
        </mxCell>
        <mxCell id="f6TxtcuEmIEezps3rI4S-11" value="" style="edgeStyle=orthogonalEdgeStyle;rounded=1;orthogonalLoop=1;jettySize=auto;html=1;curved=0;endArrow=open;endFill=0;" edge="1" parent="1" source="f6TxtcuEmIEezps3rI4S-2" target="f6TxtcuEmIEezps3rI4S-10">
          <mxGeometry relative="1" as="geometry" />
        </mxCell>
        <mxCell id="f6TxtcuEmIEezps3rI4S-13" style="edgeStyle=orthogonalEdgeStyle;rounded=1;orthogonalLoop=1;jettySize=auto;html=1;exitX=1;exitY=0.5;exitDx=0;exitDy=0;entryX=0;entryY=0.5;entryDx=0;entryDy=0;curved=0;endArrow=open;endFill=0;" edge="1" parent="1" source="f6TxtcuEmIEezps3rI4S-2" target="f6TxtcuEmIEezps3rI4S-12">
          <mxGeometry relative="1" as="geometry" />
        </mxCell>
        <mxCell id="f6TxtcuEmIEezps3rI4S-2" value="browser-use" style="rounded=1;whiteSpace=wrap;html=1;perimeterSpacing=1;absoluteArcSize=1;strokeColor=none;" vertex="1" parent="1">
          <mxGeometry x="740" y="280" width="80" height="30" as="geometry" />
        </mxCell>
        <mxCell id="f6TxtcuEmIEezps3rI4S-4" value="&lt;div data-docx-has-block-data=&quot;false&quot; data-lark-html-role=&quot;root&quot; data-page-id=&quot;FoqrdbMwvoKmRuxTPTAcZVGbncc&quot;&gt;&lt;div class=&quot;old-record-id-JBEVdbZQPohMMXxsnTOcH60enHJ&quot;&gt;anthropic&lt;/div&gt;&lt;/div&gt;&lt;span class=&quot;lark-record-clipboard&quot; data-lark-record-format=&quot;docx/text&quot; data-lark-record-data=&quot;{&amp;quot;rootId&amp;quot;:&amp;quot;FoqrdbMwvoKmRuxTPTAcZVGbncc&amp;quot;,&amp;quot;text&amp;quot;:{&amp;quot;initialAttributedTexts&amp;quot;:{&amp;quot;text&amp;quot;:{&amp;quot;0&amp;quot;:&amp;quot;anthropic&amp;quot;},&amp;quot;attribs&amp;quot;:{&amp;quot;0&amp;quot;:&amp;quot;*0*1+9&amp;quot;}},&amp;quot;apool&amp;quot;:{&amp;quot;numToAttrib&amp;quot;:{&amp;quot;0&amp;quot;:[&amp;quot;author&amp;quot;,&amp;quot;6871447160731222018&amp;quot;],&amp;quot;1&amp;quot;:[&amp;quot;link-id&amp;quot;,&amp;quot;10315824-9a2c-4ef2-9bec-ecdc504ee82a&amp;quot;]},&amp;quot;nextNum&amp;quot;:2}},&amp;quot;type&amp;quot;:&amp;quot;text&amp;quot;,&amp;quot;referenceRecordMap&amp;quot;:{},&amp;quot;extra&amp;quot;:{&amp;quot;channel&amp;quot;:&amp;quot;saas&amp;quot;,&amp;quot;isEqualBlockSelection&amp;quot;:false,&amp;quot;pasteRandomId&amp;quot;:&amp;quot;208c5f26-a661-4085-acc5-ec5a34d7300a&amp;quot;,&amp;quot;mention_page_title&amp;quot;:{},&amp;quot;external_mention_url&amp;quot;:{}},&amp;quot;isKeepQuoteContainer&amp;quot;:false,&amp;quot;isFromCode&amp;quot;:false,&amp;quot;selection&amp;quot;:[{&amp;quot;id&amp;quot;:76,&amp;quot;type&amp;quot;:&amp;quot;text&amp;quot;,&amp;quot;selection&amp;quot;:{&amp;quot;start&amp;quot;:12,&amp;quot;end&amp;quot;:21},&amp;quot;recordId&amp;quot;:&amp;quot;JBEVdbZQPohMMXxsnTOcH60enHJ&amp;quot;}],&amp;quot;payloadMap&amp;quot;:{},&amp;quot;isCut&amp;quot;:false}&quot;&gt;&lt;/span&gt;" style="rounded=1;whiteSpace=wrap;html=1;perimeterSpacing=1;absoluteArcSize=1;fillColor=#E8F1FF;strokeColor=#6c8ebf;" vertex="1" parent="1">
          <mxGeometry x="590" y="230" width="120" height="30" as="geometry" />
        </mxCell>
        <mxCell id="f6TxtcuEmIEezps3rI4S-5" value="&lt;div data-docx-has-block-data=&quot;false&quot; data-lark-html-role=&quot;root&quot; data-page-id=&quot;FoqrdbMwvoKmRuxTPTAcZVGbncc&quot;&gt;&lt;div class=&quot;old-record-id-JBEVdbZQPohMMXxsnTOcH60enHJ&quot;&gt;operator&lt;/div&gt;&lt;/div&gt;&lt;span class=&quot;lark-record-clipboard&quot; data-lark-record-format=&quot;docx/text&quot; data-lark-record-data=&quot;{&amp;quot;rootId&amp;quot;:&amp;quot;FoqrdbMwvoKmRuxTPTAcZVGbncc&amp;quot;,&amp;quot;text&amp;quot;:{&amp;quot;initialAttributedTexts&amp;quot;:{&amp;quot;text&amp;quot;:{&amp;quot;0&amp;quot;:&amp;quot;anthropic&amp;quot;},&amp;quot;attribs&amp;quot;:{&amp;quot;0&amp;quot;:&amp;quot;*0*1+9&amp;quot;}},&amp;quot;apool&amp;quot;:{&amp;quot;numToAttrib&amp;quot;:{&amp;quot;0&amp;quot;:[&amp;quot;author&amp;quot;,&amp;quot;6871447160731222018&amp;quot;],&amp;quot;1&amp;quot;:[&amp;quot;link-id&amp;quot;,&amp;quot;10315824-9a2c-4ef2-9bec-ecdc504ee82a&amp;quot;]},&amp;quot;nextNum&amp;quot;:2}},&amp;quot;type&amp;quot;:&amp;quot;text&amp;quot;,&amp;quot;referenceRecordMap&amp;quot;:{},&amp;quot;extra&amp;quot;:{&amp;quot;channel&amp;quot;:&amp;quot;saas&amp;quot;,&amp;quot;isEqualBlockSelection&amp;quot;:false,&amp;quot;pasteRandomId&amp;quot;:&amp;quot;208c5f26-a661-4085-acc5-ec5a34d7300a&amp;quot;,&amp;quot;mention_page_title&amp;quot;:{},&amp;quot;external_mention_url&amp;quot;:{}},&amp;quot;isKeepQuoteContainer&amp;quot;:false,&amp;quot;isFromCode&amp;quot;:false,&amp;quot;selection&amp;quot;:[{&amp;quot;id&amp;quot;:76,&amp;quot;type&amp;quot;:&amp;quot;text&amp;quot;,&amp;quot;selection&amp;quot;:{&amp;quot;start&amp;quot;:12,&amp;quot;end&amp;quot;:21},&amp;quot;recordId&amp;quot;:&amp;quot;JBEVdbZQPohMMXxsnTOcH60enHJ&amp;quot;}],&amp;quot;payloadMap&amp;quot;:{},&amp;quot;isCut&amp;quot;:false}&quot;&gt;&lt;/span&gt;" style="rounded=1;whiteSpace=wrap;html=1;perimeterSpacing=1;absoluteArcSize=1;fillColor=#E8F1FF;strokeColor=#6c8ebf;" vertex="1" parent="1">
          <mxGeometry x="590" y="270" width="120" height="30" as="geometry" />
        </mxCell>
        <mxCell id="f6TxtcuEmIEezps3rI4S-6" value="&lt;div data-docx-has-block-data=&quot;false&quot; data-lark-html-role=&quot;root&quot; data-page-id=&quot;FoqrdbMwvoKmRuxTPTAcZVGbncc&quot;&gt;&lt;div class=&quot;old-record-id-JBEVdbZQPohMMXxsnTOcH60enHJ&quot;&gt;ui-tars&lt;/div&gt;&lt;/div&gt;&lt;span class=&quot;lark-record-clipboard&quot; data-lark-record-format=&quot;docx/text&quot; data-lark-record-data=&quot;{&amp;quot;rootId&amp;quot;:&amp;quot;FoqrdbMwvoKmRuxTPTAcZVGbncc&amp;quot;,&amp;quot;text&amp;quot;:{&amp;quot;initialAttributedTexts&amp;quot;:{&amp;quot;text&amp;quot;:{&amp;quot;0&amp;quot;:&amp;quot;anthropic&amp;quot;},&amp;quot;attribs&amp;quot;:{&amp;quot;0&amp;quot;:&amp;quot;*0*1+9&amp;quot;}},&amp;quot;apool&amp;quot;:{&amp;quot;numToAttrib&amp;quot;:{&amp;quot;0&amp;quot;:[&amp;quot;author&amp;quot;,&amp;quot;6871447160731222018&amp;quot;],&amp;quot;1&amp;quot;:[&amp;quot;link-id&amp;quot;,&amp;quot;10315824-9a2c-4ef2-9bec-ecdc504ee82a&amp;quot;]},&amp;quot;nextNum&amp;quot;:2}},&amp;quot;type&amp;quot;:&amp;quot;text&amp;quot;,&amp;quot;referenceRecordMap&amp;quot;:{},&amp;quot;extra&amp;quot;:{&amp;quot;channel&amp;quot;:&amp;quot;saas&amp;quot;,&amp;quot;isEqualBlockSelection&amp;quot;:false,&amp;quot;pasteRandomId&amp;quot;:&amp;quot;208c5f26-a661-4085-acc5-ec5a34d7300a&amp;quot;,&amp;quot;mention_page_title&amp;quot;:{},&amp;quot;external_mention_url&amp;quot;:{}},&amp;quot;isKeepQuoteContainer&amp;quot;:false,&amp;quot;isFromCode&amp;quot;:false,&amp;quot;selection&amp;quot;:[{&amp;quot;id&amp;quot;:76,&amp;quot;type&amp;quot;:&amp;quot;text&amp;quot;,&amp;quot;selection&amp;quot;:{&amp;quot;start&amp;quot;:12,&amp;quot;end&amp;quot;:21},&amp;quot;recordId&amp;quot;:&amp;quot;JBEVdbZQPohMMXxsnTOcH60enHJ&amp;quot;}],&amp;quot;payloadMap&amp;quot;:{},&amp;quot;isCut&amp;quot;:false}&quot;&gt;&lt;/span&gt;" style="rounded=1;whiteSpace=wrap;html=1;perimeterSpacing=1;absoluteArcSize=1;fillColor=#E8F1FF;strokeColor=#6c8ebf;" vertex="1" parent="1">
          <mxGeometry x="590" y="310" width="120" height="30" as="geometry" />
        </mxCell>
        <mxCell id="f6TxtcuEmIEezps3rI4S-7" value="&lt;div data-docx-has-block-data=&quot;false&quot; data-lark-html-role=&quot;root&quot; data-page-id=&quot;FoqrdbMwvoKmRuxTPTAcZVGbncc&quot;&gt;&lt;div class=&quot;old-record-id-JBEVdbZQPohMMXxsnTOcH60enHJ&quot;&gt;eko&lt;/div&gt;&lt;/div&gt;&lt;span class=&quot;lark-record-clipboard&quot; data-lark-record-format=&quot;docx/text&quot; data-lark-record-data=&quot;{&amp;quot;rootId&amp;quot;:&amp;quot;FoqrdbMwvoKmRuxTPTAcZVGbncc&amp;quot;,&amp;quot;text&amp;quot;:{&amp;quot;initialAttributedTexts&amp;quot;:{&amp;quot;text&amp;quot;:{&amp;quot;0&amp;quot;:&amp;quot;anthropic&amp;quot;},&amp;quot;attribs&amp;quot;:{&amp;quot;0&amp;quot;:&amp;quot;*0*1+9&amp;quot;}},&amp;quot;apool&amp;quot;:{&amp;quot;numToAttrib&amp;quot;:{&amp;quot;0&amp;quot;:[&amp;quot;author&amp;quot;,&amp;quot;6871447160731222018&amp;quot;],&amp;quot;1&amp;quot;:[&amp;quot;link-id&amp;quot;,&amp;quot;10315824-9a2c-4ef2-9bec-ecdc504ee82a&amp;quot;]},&amp;quot;nextNum&amp;quot;:2}},&amp;quot;type&amp;quot;:&amp;quot;text&amp;quot;,&amp;quot;referenceRecordMap&amp;quot;:{},&amp;quot;extra&amp;quot;:{&amp;quot;channel&amp;quot;:&amp;quot;saas&amp;quot;,&amp;quot;isEqualBlockSelection&amp;quot;:false,&amp;quot;pasteRandomId&amp;quot;:&amp;quot;208c5f26-a661-4085-acc5-ec5a34d7300a&amp;quot;,&amp;quot;mention_page_title&amp;quot;:{},&amp;quot;external_mention_url&amp;quot;:{}},&amp;quot;isKeepQuoteContainer&amp;quot;:false,&amp;quot;isFromCode&amp;quot;:false,&amp;quot;selection&amp;quot;:[{&amp;quot;id&amp;quot;:76,&amp;quot;type&amp;quot;:&amp;quot;text&amp;quot;,&amp;quot;selection&amp;quot;:{&amp;quot;start&amp;quot;:12,&amp;quot;end&amp;quot;:21},&amp;quot;recordId&amp;quot;:&amp;quot;JBEVdbZQPohMMXxsnTOcH60enHJ&amp;quot;}],&amp;quot;payloadMap&amp;quot;:{},&amp;quot;isCut&amp;quot;:false}&quot;&gt;&lt;/span&gt;" style="rounded=1;whiteSpace=wrap;html=1;perimeterSpacing=1;absoluteArcSize=1;fillColor=#E8F1FF;strokeColor=#6c8ebf;" vertex="1" parent="1">
          <mxGeometry x="590" y="350" width="120" height="30" as="geometry" />
        </mxCell>
        <mxCell id="f6TxtcuEmIEezps3rI4S-10" value="&lt;div data-docx-has-block-data=&quot;false&quot; data-lark-html-role=&quot;root&quot; data-page-id=&quot;FoqrdbMwvoKmRuxTPTAcZVGbncc&quot;&gt;&lt;div class=&quot;old-record-id-YXLDdxerqoWDXWxZMH1cbyrBnBg&quot;&gt;Webarena&lt;/div&gt;&lt;/div&gt;&lt;span class=&quot;lark-record-clipboard&quot; data-lark-record-format=&quot;docx/text&quot; data-lark-record-data=&quot;{&amp;quot;rootId&amp;quot;:&amp;quot;FoqrdbMwvoKmRuxTPTAcZVGbncc&amp;quot;,&amp;quot;text&amp;quot;:{&amp;quot;initialAttributedTexts&amp;quot;:{&amp;quot;text&amp;quot;:{&amp;quot;0&amp;quot;:&amp;quot;Webarena&amp;quot;},&amp;quot;attribs&amp;quot;:{&amp;quot;0&amp;quot;:&amp;quot;*0+8&amp;quot;}},&amp;quot;apool&amp;quot;:{&amp;quot;numToAttrib&amp;quot;:{&amp;quot;0&amp;quot;:[&amp;quot;author&amp;quot;,&amp;quot;6871447160731222018&amp;quot;]},&amp;quot;nextNum&amp;quot;:1}},&amp;quot;type&amp;quot;:&amp;quot;text&amp;quot;,&amp;quot;referenceRecordMap&amp;quot;:{},&amp;quot;extra&amp;quot;:{&amp;quot;channel&amp;quot;:&amp;quot;saas&amp;quot;,&amp;quot;isEqualBlockSelection&amp;quot;:false,&amp;quot;pasteRandomId&amp;quot;:&amp;quot;9d85a07a-6e18-40ab-9c8a-803ea1c17a1c&amp;quot;,&amp;quot;mention_page_title&amp;quot;:{},&amp;quot;external_mention_url&amp;quot;:{}},&amp;quot;isKeepQuoteContainer&amp;quot;:false,&amp;quot;isFromCode&amp;quot;:false,&amp;quot;selection&amp;quot;:[{&amp;quot;id&amp;quot;:72,&amp;quot;type&amp;quot;:&amp;quot;text&amp;quot;,&amp;quot;selection&amp;quot;:{&amp;quot;start&amp;quot;:0,&amp;quot;end&amp;quot;:8},&amp;quot;recordId&amp;quot;:&amp;quot;YXLDdxerqoWDXWxZMH1cbyrBnBg&amp;quot;}],&amp;quot;payloadMap&amp;quot;:{},&amp;quot;isCut&amp;quot;:false}&quot;&gt;&lt;/span&gt;" style="rounded=1;whiteSpace=wrap;html=1;perimeterSpacing=1;absoluteArcSize=1;" vertex="1" parent="1">
          <mxGeometry x="920" y="260" width="120" height="30" as="geometry" />
        </mxCell>
        <mxCell id="f6TxtcuEmIEezps3rI4S-12" value="&lt;div data-docx-has-block-data=&quot;false&quot; data-lark-html-role=&quot;root&quot; data-page-id=&quot;FoqrdbMwvoKmRuxTPTAcZVGbncc&quot;&gt;&lt;div class=&quot;old-record-id-YXLDdxerqoWDXWxZMH1cbyrBnBg&quot;&gt;&lt;div data-docx-has-block-data=&quot;false&quot; data-lark-html-role=&quot;root&quot; data-page-id=&quot;FoqrdbMwvoKmRuxTPTAcZVGbncc&quot;&gt;&lt;div class=&quot;old-record-id-CxIwdsjBlozMJTxzVqyc23xznPg&quot;&gt;WebVoyager&lt;/div&gt;&lt;/div&gt;&lt;span class=&quot;lark-record-clipboard&quot; data-lark-record-format=&quot;docx/text&quot; data-lark-record-data=&quot;{&amp;quot;rootId&amp;quot;:&amp;quot;FoqrdbMwvoKmRuxTPTAcZVGbncc&amp;quot;,&amp;quot;text&amp;quot;:{&amp;quot;initialAttributedTexts&amp;quot;:{&amp;quot;text&amp;quot;:{&amp;quot;0&amp;quot;:&amp;quot;WebVoyager&amp;quot;},&amp;quot;attribs&amp;quot;:{&amp;quot;0&amp;quot;:&amp;quot;*0+a&amp;quot;}},&amp;quot;apool&amp;quot;:{&amp;quot;numToAttrib&amp;quot;:{&amp;quot;0&amp;quot;:[&amp;quot;author&amp;quot;,&amp;quot;6871447160731222018&amp;quot;]},&amp;quot;nextNum&amp;quot;:1}},&amp;quot;type&amp;quot;:&amp;quot;text&amp;quot;,&amp;quot;referenceRecordMap&amp;quot;:{},&amp;quot;extra&amp;quot;:{&amp;quot;channel&amp;quot;:&amp;quot;saas&amp;quot;,&amp;quot;isEqualBlockSelection&amp;quot;:false,&amp;quot;pasteRandomId&amp;quot;:&amp;quot;51d296b9-5641-4c32-b07f-b8e84cfe0941&amp;quot;,&amp;quot;mention_page_title&amp;quot;:{},&amp;quot;external_mention_url&amp;quot;:{}},&amp;quot;isKeepQuoteContainer&amp;quot;:false,&amp;quot;isFromCode&amp;quot;:false,&amp;quot;selection&amp;quot;:[{&amp;quot;id&amp;quot;:73,&amp;quot;type&amp;quot;:&amp;quot;text&amp;quot;,&amp;quot;selection&amp;quot;:{&amp;quot;start&amp;quot;:0,&amp;quot;end&amp;quot;:10},&amp;quot;recordId&amp;quot;:&amp;quot;CxIwdsjBlozMJTxzVqyc23xznPg&amp;quot;}],&amp;quot;payloadMap&amp;quot;:{},&amp;quot;isCut&amp;quot;:false}&quot;&gt;&lt;/span&gt;&lt;/div&gt;&lt;/div&gt;&lt;span class=&quot;lark-record-clipboard&quot; data-lark-record-format=&quot;docx/text&quot; data-lark-record-data=&quot;{&amp;quot;rootId&amp;quot;:&amp;quot;FoqrdbMwvoKmRuxTPTAcZVGbncc&amp;quot;,&amp;quot;text&amp;quot;:{&amp;quot;initialAttributedTexts&amp;quot;:{&amp;quot;text&amp;quot;:{&amp;quot;0&amp;quot;:&amp;quot;Webarena&amp;quot;},&amp;quot;attribs&amp;quot;:{&amp;quot;0&amp;quot;:&amp;quot;*0+8&amp;quot;}},&amp;quot;apool&amp;quot;:{&amp;quot;numToAttrib&amp;quot;:{&amp;quot;0&amp;quot;:[&amp;quot;author&amp;quot;,&amp;quot;6871447160731222018&amp;quot;]},&amp;quot;nextNum&amp;quot;:1}},&amp;quot;type&amp;quot;:&amp;quot;text&amp;quot;,&amp;quot;referenceRecordMap&amp;quot;:{},&amp;quot;extra&amp;quot;:{&amp;quot;channel&amp;quot;:&amp;quot;saas&amp;quot;,&amp;quot;isEqualBlockSelection&amp;quot;:false,&amp;quot;pasteRandomId&amp;quot;:&amp;quot;9d85a07a-6e18-40ab-9c8a-803ea1c17a1c&amp;quot;,&amp;quot;mention_page_title&amp;quot;:{},&amp;quot;external_mention_url&amp;quot;:{}},&amp;quot;isKeepQuoteContainer&amp;quot;:false,&amp;quot;isFromCode&amp;quot;:false,&amp;quot;selection&amp;quot;:[{&amp;quot;id&amp;quot;:72,&amp;quot;type&amp;quot;:&amp;quot;text&amp;quot;,&amp;quot;selection&amp;quot;:{&amp;quot;start&amp;quot;:0,&amp;quot;end&amp;quot;:8},&amp;quot;recordId&amp;quot;:&amp;quot;YXLDdxerqoWDXWxZMH1cbyrBnBg&amp;quot;}],&amp;quot;payloadMap&amp;quot;:{},&amp;quot;isCut&amp;quot;:false}&quot;&gt;&lt;/span&gt;" style="rounded=1;whiteSpace=wrap;html=1;perimeterSpacing=1;absoluteArcSize=1;" vertex="1" parent="1">
          <mxGeometry x="920" y="300" width="120" height="30" as="geometry" />
        </mxCell>
        <mxCell id="f6TxtcuEmIEezps3rI4S-16" style="edgeStyle=orthogonalEdgeStyle;rounded=0;orthogonalLoop=1;jettySize=auto;html=1;exitX=1;exitY=0.5;exitDx=0;exitDy=0;endArrow=open;endFill=0;" edge="1" parent="1" source="f6TxtcuEmIEezps3rI4S-14" target="f6TxtcuEmIEezps3rI4S-15">
          <mxGeometry relative="1" as="geometry" />
        </mxCell>
        <mxCell id="f6TxtcuEmIEezps3rI4S-14" value="computer-use" style="rounded=1;whiteSpace=wrap;html=1;perimeterSpacing=1;absoluteArcSize=1;strokeColor=none;" vertex="1" parent="1">
          <mxGeometry x="737" y="340" width="90" height="30" as="geometry" />
        </mxCell>
        <mxCell id="f6TxtcuEmIEezps3rI4S-15" value="&lt;div data-docx-has-block-data=&quot;false&quot; data-lark-html-role=&quot;root&quot; data-page-id=&quot;FoqrdbMwvoKmRuxTPTAcZVGbncc&quot;&gt;&lt;div class=&quot;old-record-id-YXLDdxerqoWDXWxZMH1cbyrBnBg&quot;&gt;OSWorld&lt;/div&gt;&lt;/div&gt;&lt;span class=&quot;lark-record-clipboard&quot; data-lark-record-format=&quot;docx/text&quot; data-lark-record-data=&quot;{&amp;quot;rootId&amp;quot;:&amp;quot;FoqrdbMwvoKmRuxTPTAcZVGbncc&amp;quot;,&amp;quot;text&amp;quot;:{&amp;quot;initialAttributedTexts&amp;quot;:{&amp;quot;text&amp;quot;:{&amp;quot;0&amp;quot;:&amp;quot;Webarena&amp;quot;},&amp;quot;attribs&amp;quot;:{&amp;quot;0&amp;quot;:&amp;quot;*0+8&amp;quot;}},&amp;quot;apool&amp;quot;:{&amp;quot;numToAttrib&amp;quot;:{&amp;quot;0&amp;quot;:[&amp;quot;author&amp;quot;,&amp;quot;6871447160731222018&amp;quot;]},&amp;quot;nextNum&amp;quot;:1}},&amp;quot;type&amp;quot;:&amp;quot;text&amp;quot;,&amp;quot;referenceRecordMap&amp;quot;:{},&amp;quot;extra&amp;quot;:{&amp;quot;channel&amp;quot;:&amp;quot;saas&amp;quot;,&amp;quot;isEqualBlockSelection&amp;quot;:false,&amp;quot;pasteRandomId&amp;quot;:&amp;quot;9d85a07a-6e18-40ab-9c8a-803ea1c17a1c&amp;quot;,&amp;quot;mention_page_title&amp;quot;:{},&amp;quot;external_mention_url&amp;quot;:{}},&amp;quot;isKeepQuoteContainer&amp;quot;:false,&amp;quot;isFromCode&amp;quot;:false,&amp;quot;selection&amp;quot;:[{&amp;quot;id&amp;quot;:72,&amp;quot;type&amp;quot;:&amp;quot;text&amp;quot;,&amp;quot;selection&amp;quot;:{&amp;quot;start&amp;quot;:0,&amp;quot;end&amp;quot;:8},&amp;quot;recordId&amp;quot;:&amp;quot;YXLDdxerqoWDXWxZMH1cbyrBnBg&amp;quot;}],&amp;quot;payloadMap&amp;quot;:{},&amp;quot;isCut&amp;quot;:false}&quot;&gt;&lt;/span&gt;" style="rounded=1;whiteSpace=wrap;html=1;perimeterSpacing=1;absoluteArcSize=1;" vertex="1" parent="1">
          <mxGeometry x="920" y="340" width="120" height="30" as="geometry" />
        </mxCell>
        <mxCell id="f6TxtcuEmIEezps3rI4S-17" value="&lt;div data-docx-has-block-data=&quot;false&quot; data-lark-html-role=&quot;root&quot; data-page-id=&quot;FoqrdbMwvoKmRuxTPTAcZVGbncc&quot;&gt;&lt;div class=&quot;old-record-id-JBEVdbZQPohMMXxsnTOcH60enHJ&quot;&gt;omniparser-v2&lt;/div&gt;&lt;/div&gt;&lt;span class=&quot;lark-record-clipboard&quot; data-lark-record-format=&quot;docx/text&quot; data-lark-record-data=&quot;{&amp;quot;rootId&amp;quot;:&amp;quot;FoqrdbMwvoKmRuxTPTAcZVGbncc&amp;quot;,&amp;quot;text&amp;quot;:{&amp;quot;initialAttributedTexts&amp;quot;:{&amp;quot;text&amp;quot;:{&amp;quot;0&amp;quot;:&amp;quot;anthropic&amp;quot;},&amp;quot;attribs&amp;quot;:{&amp;quot;0&amp;quot;:&amp;quot;*0*1+9&amp;quot;}},&amp;quot;apool&amp;quot;:{&amp;quot;numToAttrib&amp;quot;:{&amp;quot;0&amp;quot;:[&amp;quot;author&amp;quot;,&amp;quot;6871447160731222018&amp;quot;],&amp;quot;1&amp;quot;:[&amp;quot;link-id&amp;quot;,&amp;quot;10315824-9a2c-4ef2-9bec-ecdc504ee82a&amp;quot;]},&amp;quot;nextNum&amp;quot;:2}},&amp;quot;type&amp;quot;:&amp;quot;text&amp;quot;,&amp;quot;referenceRecordMap&amp;quot;:{},&amp;quot;extra&amp;quot;:{&amp;quot;channel&amp;quot;:&amp;quot;saas&amp;quot;,&amp;quot;isEqualBlockSelection&amp;quot;:false,&amp;quot;pasteRandomId&amp;quot;:&amp;quot;208c5f26-a661-4085-acc5-ec5a34d7300a&amp;quot;,&amp;quot;mention_page_title&amp;quot;:{},&amp;quot;external_mention_url&amp;quot;:{}},&amp;quot;isKeepQuoteContainer&amp;quot;:false,&amp;quot;isFromCode&amp;quot;:false,&amp;quot;selection&amp;quot;:[{&amp;quot;id&amp;quot;:76,&amp;quot;type&amp;quot;:&amp;quot;text&amp;quot;,&amp;quot;selection&amp;quot;:{&amp;quot;start&amp;quot;:12,&amp;quot;end&amp;quot;:21},&amp;quot;recordId&amp;quot;:&amp;quot;JBEVdbZQPohMMXxsnTOcH60enHJ&amp;quot;}],&amp;quot;payloadMap&amp;quot;:{},&amp;quot;isCut&amp;quot;:false}&quot;&gt;&lt;/span&gt;" style="rounded=1;whiteSpace=wrap;html=1;perimeterSpacing=1;absoluteArcSize=1;fillColor=#E8F1FF;strokeColor=#6c8ebf;" vertex="1" parent="1">
          <mxGeometry x="590" y="390" width="120" height="30" as="geometry" />
        </mxCell>
        <mxCell id="f6TxtcuEmIEezps3rI4S-18" value="CUA ( computer use agent )" style="text;html=1;align=left;verticalAlign=middle;whiteSpace=wrap;rounded=0;fontStyle=1;fontSize=15;" vertex="1" parent="1">
          <mxGeometry x="470" y="150" width="220" height="30" as="geometry" />
        </mxCell>
        <mxCell id="f6TxtcuEmIEezps3rI4S-19" value="benchmark" style="text;html=1;align=center;verticalAlign=middle;whiteSpace=wrap;rounded=0;" vertex="1" parent="1">
          <mxGeometry x="950" y="220" width="60" height="30" as="geometry" />
        </mxCell>
        <mxCell id="f6TxtcuEmIEezps3rI4S-21" style="edgeStyle=orthogonalEdgeStyle;rounded=1;orthogonalLoop=1;jettySize=auto;html=1;exitX=1;exitY=0.5;exitDx=0;exitDy=0;entryX=0;entryY=0.5;entryDx=0;entryDy=0;curved=0;endArrow=open;endFill=0;" edge="1" parent="1" source="f6TxtcuEmIEezps3rI4S-20" target="f6TxtcuEmIEezps3rI4S-4">
          <mxGeometry relative="1" as="geometry" />
        </mxCell>
        <mxCell id="f6TxtcuEmIEezps3rI4S-22" style="edgeStyle=orthogonalEdgeStyle;rounded=1;orthogonalLoop=1;jettySize=auto;html=1;exitX=1;exitY=0.5;exitDx=0;exitDy=0;entryX=0;entryY=0.5;entryDx=0;entryDy=0;curved=0;endArrow=open;endFill=0;" edge="1" parent="1" source="f6TxtcuEmIEezps3rI4S-20" target="f6TxtcuEmIEezps3rI4S-5">
          <mxGeometry relative="1" as="geometry" />
        </mxCell>
        <mxCell id="f6TxtcuEmIEezps3rI4S-23" style="edgeStyle=orthogonalEdgeStyle;rounded=1;orthogonalLoop=1;jettySize=auto;html=1;exitX=1;exitY=0.5;exitDx=0;exitDy=0;entryX=0;entryY=0.5;entryDx=0;entryDy=0;curved=0;endArrow=open;endFill=0;" edge="1" parent="1" source="f6TxtcuEmIEezps3rI4S-20" target="f6TxtcuEmIEezps3rI4S-6">
          <mxGeometry relative="1" as="geometry" />
        </mxCell>
        <mxCell id="f6TxtcuEmIEezps3rI4S-24" style="edgeStyle=orthogonalEdgeStyle;rounded=1;orthogonalLoop=1;jettySize=auto;html=1;exitX=1;exitY=0.5;exitDx=0;exitDy=0;entryX=0;entryY=0.5;entryDx=0;entryDy=0;curved=0;endArrow=open;endFill=0;" edge="1" parent="1" source="f6TxtcuEmIEezps3rI4S-20" target="f6TxtcuEmIEezps3rI4S-7">
          <mxGeometry relative="1" as="geometry" />
        </mxCell>
        <mxCell id="f6TxtcuEmIEezps3rI4S-25" style="edgeStyle=orthogonalEdgeStyle;rounded=1;orthogonalLoop=1;jettySize=auto;html=1;exitX=1;exitY=0.5;exitDx=0;exitDy=0;entryX=0;entryY=0.5;entryDx=0;entryDy=0;curved=0;endArrow=open;endFill=0;" edge="1" parent="1" source="f6TxtcuEmIEezps3rI4S-20" target="f6TxtcuEmIEezps3rI4S-17">
          <mxGeometry relative="1" as="geometry" />
        </mxCell>
        <mxCell id="f6TxtcuEmIEezps3rI4S-20" value="AI model" style="text;html=1;align=center;verticalAlign=middle;whiteSpace=wrap;rounded=0;" vertex="1" parent="1">
          <mxGeometry x="450" y="310" width="60" height="30" as="geometry" />
        </mxCell>
      </root>
    </mxGraphModel>
  </diagram>
</mxfile>
